<?xml version="1.0" standalone="no"?>
<!DOCTYPE svg PUBLIC "-//W3C//DTD SVG 20010904//EN"
 "http://www.w3.org/TR/2001/REC-SVG-20010904/DTD/svg10.dtd">
<svg version="1.0" xmlns="http://www.w3.org/2000/svg"
 width="512.000000pt" height="512.000000pt" viewBox="0 0 512.000000 512.000000"
 preserveAspectRatio="xMidYMid meet">

<g transform="translate(0.000000,512.000000) scale(0.100000,-0.100000)"
fill="#000000" stroke="none">
<path d="M2415 4758 c-132 -7 -315 -35 -415 -64 -30 -9 -68 -19 -85 -24 -274
-75 -594 -259 -859 -495 -256 -228 -518 -647 -606 -970 -5 -16 -15 -55 -24
-85 -89 -306 -89 -814 0 -1120 9 -30 19 -68 24 -85 46 -171 153 -393 276 -576
79 -118 241 -318 295 -364 13 -11 61 -53 107 -92 166 -144 392 -280 617 -373
43 -18 141 -53 170 -60 17 -5 57 -16 90 -25 326 -89 805 -89 1115 1 30 9 69
19 85 24 241 66 574 249 787 433 46 39 94 81 107 92 55 47 217 246 295 364
124 185 230 406 276 576 5 17 15 55 24 85 36 124 65 337 67 490 2 143 -11 184
-76 238 -133 109 -335 30 -351 -137 -2 -25 -9 -102 -14 -171 -10 -120 -21
-196 -40 -270 -15 -58 -60 -203 -71 -230 -29 -66 -40 -90 -74 -160 -175 -354
-516 -674 -880 -825 -16 -7 -41 -18 -55 -24 -30 -13 -170 -56 -225 -70 -167
-41 -377 -57 -547 -42 -128 11 -203 22 -278 41 -58 15 -203 60 -230 71 -66 29
-90 40 -158 73 -97 48 -102 51 -201 120 -186 129 -332 275 -457 457 -32 47
-65 96 -72 109 -34 57 -112 220 -112 233 0 7 -4 17 -8 23 -9 9 -52 145 -71
219 -42 170 -59 387 -43 553 12 125 24 198 43 277 14 55 57 195 70 225 72 168
111 240 193 359 125 182 275 332 457 457 47 32 96 65 109 73 61 35 219 111
232 111 8 0 18 4 24 8 8 8 143 51 224 72 302 77 691 57 1040 -52 19 -6 49 -16
65 -23 17 -7 57 -23 90 -35 67 -27 234 -111 274 -139 14 -10 31 -20 36 -22 28
-10 154 -105 155 -116 0 -8 -60 -12 -222 -15 l-223 -3 -42 -27 c-64 -42 -93
-99 -93 -185 0 -64 3 -76 33 -119 22 -32 51 -57 83 -74 l49 -25 469 -3 c532
-3 546 -2 615 67 70 70 71 77 71 597 0 443 -1 466 -21 518 -46 123 -184 175
-305 114 -97 -48 -124 -124 -124 -345 0 -84 -3 -153 -6 -153 -4 0 -36 22 -73
49 -99 73 -244 161 -351 213 -128 62 -208 98 -220 98 -6 0 -18 4 -28 10 -25
14 -193 65 -292 88 -233 55 -456 74 -715 60z"/>
</g>
</svg>
